<svg width="26" height="16" viewBox="0 0 26 16" fill="none" xmlns="http://www.w3.org/2000/svg">
<path d="M25.8984 8.39658C26.0339 8.14944 26.0339 7.85052 25.8984 7.60338C23.4146 3.07455 18.5699 0 13 0C7.43012 0 2.58541 3.07459 0.101642 7.60338C-0.0338807 7.85052 -0.0338807 8.14944 0.101642 8.39658C2.58545 12.9254 7.43003 16 13 16C18.5699 16 23.4146 12.9254 25.8984 8.39658ZM13 14.1365C9.57775 14.1365 6.80352 11.3891 6.80352 8C6.80352 4.61092 9.57775 1.86344 13 1.86344C16.4222 1.86344 19.1965 4.61087 19.1965 8C19.1965 11.3891 16.4222 14.1365 13 14.1365Z" fill="#57606A"/>
<path d="M12.9999 4.87276C12.7393 4.87276 12.4861 4.90427 12.2438 4.96321C12.492 5.24763 12.6424 5.61799 12.6424 6.02336C12.6424 6.91951 11.9089 7.64602 11.0039 7.64602C10.5946 7.64602 10.2206 7.49704 9.93343 7.25125C9.87391 7.49119 9.84209 7.74191 9.84209 8.00006C9.84209 9.72723 11.2559 11.1273 12.9999 11.1273C14.7439 11.1273 16.1577 9.72719 16.1577 8.00006C16.1577 6.27294 14.744 4.87276 12.9999 4.87276Z" fill="#57606A"/>
</svg>
