<svg width="16" height="16" viewBox="0 0 16 16" fill="none" xmlns="http://www.w3.org/2000/svg">
<path d="M8 0C5.41472 0 3.31147 2.10325 3.31147 4.68853C3.31147 5.39357 3.46419 6.07116 3.76526 6.70294C3.77132 6.71645 3.77768 6.72972 3.78447 6.74299L7.3269 13.6019C7.45695 13.8536 7.71663 14.0118 7.99994 14.0118C8.28332 14.0118 8.543 13.8537 8.67299 13.6019L12.2144 6.74487C12.2206 6.73306 12.2263 6.72112 12.2317 6.70906C12.5348 6.07546 12.6884 5.39581 12.6884 4.68853C12.6885 2.10325 10.5853 0 8 0ZM8 7.1426C6.64682 7.1426 5.54593 6.04171 5.54593 4.68853C5.54593 3.33541 6.64682 2.23451 8 2.23451C9.35319 2.23451 10.4541 3.33541 10.4541 4.68853C10.4541 6.04171 9.35319 7.1426 8 7.1426Z" fill="#57606A"/>
<path d="M9.806 15.091H6.194C5.94293 15.091 5.73949 15.2944 5.73949 15.5455C5.73949 15.7966 5.94293 16 6.194 16H9.806C10.0571 16 10.2605 15.7966 10.2605 15.5455C10.2605 15.2944 10.057 15.091 9.806 15.091Z" fill="#57606A"/>
</svg>
