<svg width="135" height="135" viewBox="0 0 135 135" fill="none" xmlns="http://www.w3.org/2000/svg">
<path opacity="0.1" d="M67.5 135C104.779 135 135 104.779 135 67.5C135 30.2208 104.779 0 67.5 0C30.2208 0 0 30.2208 0 67.5C0 104.779 30.2208 135 67.5 135Z" fill="url(#paint0_linear_10:60)"/>
<path d="M104.345 97.2392H50.6723V32H89.3275L104.345 47.0172V97.2392Z" fill="#E8E8E8"/>
<path d="M89.3275 47.0172H104.345L89.3275 32V47.0172Z" fill="#CCCED0"/>
<path d="M84.6723 103.762H31V38.5228H69.6552L84.6723 53.54V103.762Z" fill="#DCDDDE"/>
<path d="M66.1535 51.262H36.3329V53.54H66.1535V51.262Z" fill="#4C5B6B"/>
<path d="M79.3394 60.9956H36.3329V63.2735H79.3394V60.9956Z" fill="#A4A9AD"/>
<path d="M72.7803 66.3794H36.3329V68.6574H72.7803V66.3794Z" fill="#A4A9AD"/>
<path d="M79.3394 71.7633H36.3329V74.0413H79.3394V71.7633Z" fill="#A4A9AD"/>
<path d="M72.7803 77.1471H36.3329V79.4251H72.7803V77.1471Z" fill="#A4A9AD"/>
<path d="M79.3394 82.531H36.3329V84.809H79.3394V82.531Z" fill="#A4A9AD"/>
<path d="M72.7803 87.9149H36.3329V90.1928H72.7803V87.9149Z" fill="#A4A9AD"/>
<path d="M79.3394 93.2987H36.3329V95.5767H79.3394V93.2987Z" fill="#A4A9AD"/>
<path d="M69.6552 53.54H84.6723L69.6552 38.5229V53.54Z" fill="#C6C8CB"/>
<path d="M83.4617 41.9079C83.4617 45.1975 80.7956 47.8637 77.5059 47.8637C74.2163 47.8637 71.5501 45.1975 71.5501 41.9079C71.5501 38.6183 74.2163 35.9521 77.5059 35.9521C80.7949 35.9521 83.4617 38.619 83.4617 41.9079ZM102.837 69.8368C102.062 70.6123 101.045 71 100.03 71C99.0136 71 97.9972 70.6123 97.2223 69.8368C97.2223 69.8368 87.1093 59.7132 87.0293 59.6139C84.1995 61.4198 80.8412 62.4706 77.2352 62.4706C67.1641 62.4707 59 54.3065 59 44.2354C59 34.1641 67.1647 26 77.2353 26C87.306 26 95.4707 34.1641 95.4707 44.2353C95.4707 47.8412 94.4198 51.1996 92.614 54.0294C92.7132 54.1086 102.837 64.2224 102.837 64.2224C104.388 65.7723 104.388 68.2862 102.837 69.8368ZM91.6715 44.2353C91.6715 36.2625 85.2081 29.7991 77.2353 29.7991C69.2626 29.7991 62.7992 36.2625 62.7992 44.2353C62.7992 48.8364 64.9544 52.9321 68.3076 55.5758C68.7437 52.3438 71.5066 49.8497 74.8583 49.8497H80.1523C83.3665 49.8497 86.0433 52.142 86.6428 55.18C89.72 52.5324 91.6715 48.6129 91.6715 44.2353Z" fill="#57606A"/>
<defs>
<linearGradient id="paint0_linear_10:60" x1="161.583" y1="-204.224" x2="60.4065" y2="149.495" gradientUnits="userSpaceOnUse">
<stop stop-color="#5498FF"/>
<stop offset="0.515625" stop-color="#428EFF"/>
<stop offset="1" stop-color="#297FFF"/>
</linearGradient>
</defs>
</svg>
