<svg width="16" height="16" viewBox="0 0 16 16" fill="none" xmlns="http://www.w3.org/2000/svg">
<path d="M8.66667 14V15.6667L6.66667 14.3333L4.66667 15.6667V14H4.33333C3.71449 14 3.121 13.7542 2.68342 13.3166C2.24583 12.879 2 12.2855 2 11.6667V3.33333C2 2.8029 2.21071 2.29419 2.58579 1.91911C2.96086 1.54404 3.46957 1.33333 4 1.33333H13.3333C13.5101 1.33333 13.6797 1.40357 13.8047 1.52859C13.9298 1.65361 14 1.82318 14 1.99999V13.3333C14 13.5101 13.9298 13.6797 13.8047 13.8047C13.6797 13.9298 13.5101 14 13.3333 14H8.66667ZM4.66667 12.6667V11.3333H8.66667V12.6667H12.6667V10.6667H4.33333C4.06812 10.6667 3.81376 10.772 3.62623 10.9596C3.43869 11.1471 3.33333 11.4014 3.33333 11.6667C3.33333 11.9319 3.43869 12.1862 3.62623 12.3738C3.81376 12.5613 4.06812 12.6667 4.33333 12.6667H4.66667ZM4.66667 3.33333V4.66666H6V3.33333H4.66667ZM4.66667 5.33333V6.66666H6V5.33333H4.66667ZM4.66667 7.33333V8.66666H6V7.33333H4.66667Z" fill="#57606A"/>
</svg>
