<svg width="52" height="50" viewBox="0 0 52 50" fill="#FFF" xmlns="http://www.w3.org/2000/svg">
<path d="M51.8843 18.925C51.6061 18.0637 50.8663 17.436 49.9758 17.306L34.8739 15.098L28.1199 1.32616C27.7217 0.514162 26.8998 0 26 0C25.1001 0 24.2782 0.514162 23.8801 1.32616L17.1266 15.0979L2.02418 17.3058C1.13371 17.436 0.393763 18.0637 0.11575 18.9249C-0.162264 19.7862 0.0695715 20.7316 0.714014 21.3636L11.6421 32.0817L9.06135 47.2189C8.90926 48.1115 9.2738 49.0134 10.0018 49.5456C10.4136 49.8468 10.9014 50 11.3915 50C11.7677 50 12.1455 49.9098 12.4914 49.7267L25.9998 42.5806L39.5081 49.7267C39.8561 49.9109 40.2372 49.9986 40.6146 50C41.9188 49.9981 42.9754 48.9338 42.9754 47.6211C42.9754 47.4384 42.9549 47.2603 42.9161 47.0895L40.3577 32.0819L51.2858 21.3636C51.9304 20.7316 52.1623 19.7862 51.8843 18.925Z" fill="#57606A"/>
</svg>
