<svg width="16" height="16" viewBox="0 0 16 16" fill="none" xmlns="http://www.w3.org/2000/svg">
<g clip-path="url(#clip0_8:2)">
<path d="M15.6373 2.96196C15.3859 3.07344 15.1275 3.16753 14.8635 3.24392C15.1761 2.89037 15.4144 2.47437 15.5599 2.01915C15.5926 1.91711 15.5587 1.80542 15.4749 1.73868C15.3911 1.67189 15.2747 1.66389 15.1825 1.71855C14.6217 2.05115 14.0167 2.29016 13.3823 2.42993C12.7433 1.80552 11.8754 1.45016 10.9782 1.45016C9.08422 1.45016 7.54337 2.99096 7.54337 4.88485C7.54337 5.03401 7.55281 5.18235 7.5715 5.32862C5.2213 5.12227 3.03637 3.96712 1.53599 2.12666C1.48252 2.06106 1.40014 2.0257 1.31581 2.03246C1.23142 2.03907 1.1556 2.08666 1.11297 2.15979C0.808657 2.68196 0.64778 3.27917 0.64778 3.88681C0.64778 4.71442 0.943264 5.49966 1.46523 6.11324C1.30652 6.05827 1.1525 5.98957 1.00551 5.90797C0.926593 5.86405 0.830283 5.86472 0.751883 5.90967C0.673432 5.95463 0.624244 6.03731 0.62218 6.12769C0.621819 6.14291 0.621819 6.15814 0.621819 6.17357C0.621819 7.40893 1.2867 8.52113 2.30321 9.12733C2.21588 9.1186 2.12861 9.10596 2.0419 9.08939C1.9525 9.07231 1.86058 9.10364 1.8003 9.17182C1.73991 9.23995 1.71993 9.33491 1.74775 9.42162C2.12401 10.5963 3.09273 11.4604 4.26383 11.7238C3.29253 12.3322 2.18177 12.6508 1.01573 12.6508C0.772425 12.6508 0.527728 12.6365 0.288244 12.6082C0.169277 12.5941 0.0555219 12.6643 0.0150057 12.7774C-0.0255104 12.8906 0.0174315 13.0168 0.118644 13.0817C1.61661 14.0422 3.34868 14.5498 5.12752 14.5498C8.6245 14.5498 10.8121 12.9008 12.0315 11.5174C13.552 9.79246 14.424 7.50926 14.424 5.25331C14.424 5.15907 14.4226 5.06389 14.4197 4.96903C15.0196 4.51706 15.5361 3.97006 15.9564 3.34136C16.0202 3.24588 16.0133 3.11969 15.9393 3.03179C15.8655 2.94384 15.7424 2.9154 15.6373 2.96196Z" fill="#57606A"/>
</g>
<defs>
<clipPath id="clip0_8:2">
<rect width="16" height="16" fill="white"/>
</clipPath>
</defs>
</svg>
