<svg width="14" height="16" viewBox="0 0 14 16" fill="none" xmlns="http://www.w3.org/2000/svg">
<path d="M2.21608 6.42906C2.21608 5.00258 3.37238 3.84629 4.79886 3.84629C6.22534 3.84629 7.38164 5.00258 7.38164 6.42906C7.38164 7.85551 6.22534 9.01183 4.79886 9.01183C3.37238 9.01183 2.21608 7.85554 2.21608 6.42906ZM5.89478 9.18795H3.70308C1.8797 9.18795 0.396194 10.6714 0.396194 12.4946V15.1755L0.403061 15.2174L0.588111 15.2751C2.32792 15.8186 3.83998 16 5.08432 16C7.51472 16 8.92322 15.3069 9.01045 15.2629L9.18328 15.1752L9.20149 15.1754V12.4946C9.20149 10.6714 7.71801 9.18795 5.89478 9.18795ZM9.20149 5.16546C10.6279 5.16546 11.7843 4.00916 11.7843 2.58269C11.7843 1.1563 10.6279 0 9.20149 0C7.77513 0 6.61871 1.1563 6.61871 2.58269C6.61874 4.00916 7.77513 5.16546 9.20149 5.16546ZM10.2973 5.34155H8.10566C8.05337 5.34155 8.00245 5.34705 7.95087 5.34955C8.14901 5.76547 8.26336 6.22897 8.26336 6.71979C8.26336 7.62551 7.88345 8.4424 7.27637 9.02504C8.69691 9.4476 9.7828 10.654 10.0299 12.1406C12.1248 12.0491 13.3324 11.4572 13.4128 11.4166L13.5856 11.3288L13.6038 11.3292V8.6484C13.6042 6.82514 12.1206 5.34155 10.2973 5.34155Z" fill="#57606A"/>
</svg>
